<?xml version="1.0" encoding="UTF-8" standalone="yes"?>
<!DOCTYPE svg PUBLIC "-//W3C//DTD SVG 1.0//EN" "http://www.w3.org/TR/2001/REC-SVG-20010904/DTD/svg10.dtd">
<svg height="250" width="684" xmlns="http://www.w3.org/2000/svg" xmlns:svg="http://www.w3.org/2000/svg" xmlns:xlink="http://www.w3.org/1999/xlink">
	<line stroke="black" stroke-width="2" x1="98" x2="238" y1="160" y2="160" />
	<line stroke="black" stroke-width="1" x1="98" x2="98" y1="160" y2="155" />
	<line stroke="black" stroke-width="1" x1="238" x2="238" y1="160" y2="155" />
	<text font-family="Arial" font-size="10" text-anchor="middle" x="98" y="175">0</text>
	<text font-family="Arial" font-size="10" text-anchor="middle" x="238" y="175">0.002</text>
	<text font-family="Arial" font-size="15" text-anchor="middle" x="168" y="190">Means in groups</text>
	<rect fill="sandybrown" height="10" stroke="black" width="28" x="12" y="70" />
	<text font-family="Arial" font-size="10" text-anchor="start" x="45" y="80">D</text>
	<rect fill="cornflowerblue" height="10" stroke="black" width="28" x="55" y="70" />
	<text font-family="Arial" font-size="10" text-anchor="start" x="88" y="80">B</text>
	<line stroke="black" stroke-width="2" x1="298" x2="548" y1="160" y2="160" />
	<line stroke="black" stroke-width="1" x1="298" x2="298" y1="160" y2="155" />
	<text font-family="Arial" font-size="10" text-anchor="end" x="298" y="175">-6e-05</text>
	<line stroke="black" stroke-width="1" x1="360.5" x2="360.5" y1="160" y2="155" />
	<text font-family="Arial" font-size="10" text-anchor="end" x="360.5" y="175">-4.5e-05</text>
	<line stroke="black" stroke-width="1" x1="423" x2="423" y1="160" y2="155" />
	<text font-family="Arial" font-size="10" text-anchor="end" x="423" y="175">-3e-05</text>
	<line stroke="black" stroke-width="1" x1="485.5" x2="485.5" y1="160" y2="155" />
	<text font-family="Arial" font-size="10" text-anchor="end" x="485.5" y="175">-1.5e-05</text>
	<line stroke="black" stroke-width="1" x1="548" x2="548" y1="160" y2="155" />
	<text font-family="Arial" font-size="10" text-anchor="end" x="548" y="175">0</text>
	<line stroke="black" stroke-dasharray="3 2" stroke-width="1" x1="548" x2="548" y1="150" y2="100" />
	<text font-family="Arial" font-size="15" text-anchor="middle" x="423" y="190">Difference between groups</text>
	<text font-family="Arial" font-size="10" text-anchor="middle" x="423" y="80">95% confidence intervals</text>
	<text font-family="Arial" font-size="10" text-anchor="end" x="93" y="130">Tuberculosis</text>
	<text font-family="Arial" font-size="10" text-anchor="start" x="553" y="130">0.049</text>
	<rect fill-opacity="0.1" height="50" width="140" x="98" y="100" />
	<rect fill-opacity="0.1" height="50" width="250" x="298" y="100" />
	<rect fill="sandybrown" height="20" stroke="black" stroke-width="1" width="121.04638880152" x="98" y="105" />
	<rect fill="cornflowerblue" height="20" stroke="black" width="122.77881142275" x="98" y="125" />
	<line stroke="black" stroke-width="1" x1="342.123011566956" x2="436.546272545834" y1="125" y2="125" />
	<circle cx="444.879605879167" cy="125" fill="cornflowerblue" r="8.33333333333333" stroke="black" />
	<line stroke="black" stroke-width="1" x1="453.2129392125" x2="547.636200191378" y1="125" y2="125" />
	<line stroke="black" stroke-width="1" x1="342.123011566956" x2="342.123011566956" y1="120.833333333333" y2="129.166666666667" />
	<line stroke="black" stroke-width="1" x1="547.636200191378" x2="547.636200191378" y1="120.833333333333" y2="129.166666666667" />
	<g transform="rotate(90,595.5,125)">
		<text font-family="Arial" font-size="10" text-anchor="middle" x="595.5" y="125">p_value</text>
	</g>
	<!-- 
	Generated using the Perl SVG Module V2.59
	by Ronan Oger
	Info: http://www.roitsystems.com/
 -->
</svg>