<?xml version="1.0" encoding="UTF-8" standalone="no"?>
<!DOCTYPE svg PUBLIC "-//W3C//DTD SVG 1.1//EN"
 "http://www.w3.org/Graphics/SVG/1.1/DTD/svg11.dtd">
<!-- Generated by graphviz version 2.30.1 (20150306.0020)
 -->
<!-- Title: Advance_flow Pages: 1 -->
<svg width="802pt" height="692pt"
 viewBox="0.00 0.00 802.00 692.00" xmlns="http://www.w3.org/2000/svg" xmlns:xlink="http://www.w3.org/1999/xlink">
<g id="graph0" class="graph" transform="scale(1 1) rotate(0) translate(4 688)">
<title>Advance_flow</title>
<polygon fill="white" stroke="white" points="-4,5 -4,-688 799,-688 799,5 -4,5"/>
<!-- snp_indel -->
<g id="node1" class="node"><title>snp_indel</title>
<path fill="none" stroke="black" d="M378.25,-684C378.25,-684 273.75,-684 273.75,-684 267.75,-684 261.75,-678 261.75,-672 261.75,-672 261.75,-660 261.75,-660 261.75,-654 267.75,-648 273.75,-648 273.75,-648 378.25,-648 378.25,-648 384.25,-648 390.25,-654 390.25,-660 390.25,-660 390.25,-672 390.25,-672 390.25,-678 384.25,-684 378.25,-684"/>
<text text-anchor="middle" x="326" y="-662.9" font-family="Microsoft YaHei" font-size="12.00">所有SNP/INDEL位点</text>
</g>
<!-- con_filter -->
<g id="node3" class="node"><title>con_filter</title>
<path fill="none" stroke="black" d="M271.25,-612C271.25,-612 230.75,-612 230.75,-612 224.75,-612 218.75,-606 218.75,-600 218.75,-600 218.75,-588 218.75,-588 218.75,-582 224.75,-576 230.75,-576 230.75,-576 271.25,-576 271.25,-576 277.25,-576 283.25,-582 283.25,-588 283.25,-588 283.25,-600 283.25,-600 283.25,-606 277.25,-612 271.25,-612"/>
<text text-anchor="middle" x="251" y="-590.9" font-family="Microsoft YaHei" font-size="12.00">常规过滤</text>
</g>
<!-- snp_indel&#45;&gt;con_filter -->
<g id="edge1" class="edge"><title>snp_indel&#45;&gt;con_filter</title>
<path fill="none" stroke="black" d="M272.5,-647.831C272.5,-647.831 272.5,-622.413 272.5,-622.413"/>
<polygon fill="black" stroke="black" points="276,-622.413 272.5,-612.413 269,-622.413 276,-622.413"/>
</g>
<!-- acmg -->
<g id="node15" class="node"><title>acmg</title>
<path fill="none" stroke="black" d="M510.25,-324C510.25,-324 457.75,-324 457.75,-324 451.75,-324 445.75,-318 445.75,-312 445.75,-312 445.75,-300 445.75,-300 445.75,-294 451.75,-288 457.75,-288 457.75,-288 510.25,-288 510.25,-288 516.25,-288 522.25,-294 522.25,-300 522.25,-300 522.25,-312 522.25,-312 522.25,-318 516.25,-324 510.25,-324"/>
<text text-anchor="middle" x="484" y="-302.9" font-family="Microsoft YaHei" font-size="12.00">有害性分类</text>
</g>
<!-- snp_indel&#45;&gt;acmg -->
<g id="edge13" class="edge"><title>snp_indel&#45;&gt;acmg</title>
<path fill="none" stroke="black" d="M362.917,-647.958C362.917,-575.82 362.917,-312 362.917,-312 362.917,-312 435.688,-312 435.688,-312"/>
<polygon fill="black" stroke="black" points="435.689,-315.5 445.688,-312 435.688,-308.5 435.689,-315.5"/>
</g>
<!-- candidate_gene -->
<g id="node2" class="node"><title>candidate_gene</title>
<path fill="none" stroke="black" d="M337.25,-180C337.25,-180 296.75,-180 296.75,-180 290.75,-180 284.75,-174 284.75,-168 284.75,-168 284.75,-156 284.75,-156 284.75,-150 290.75,-144 296.75,-144 296.75,-144 337.25,-144 337.25,-144 343.25,-144 349.25,-150 349.25,-156 349.25,-156 349.25,-168 349.25,-168 349.25,-174 343.25,-180 337.25,-180"/>
<text text-anchor="middle" x="317" y="-158.9" font-family="Microsoft YaHei" font-size="12.00">候选基因</text>
</g>
<!-- phenolyzer -->
<g id="node12" class="node"><title>phenolyzer</title>
<path fill="none" stroke="black" d="M228,-108C228,-108 176,-108 176,-108 170,-108 164,-102 164,-96 164,-96 164,-84 164,-84 164,-78 170,-72 176,-72 176,-72 228,-72 228,-72 234,-72 240,-78 240,-84 240,-84 240,-96 240,-96 240,-102 234,-108 228,-108"/>
<text text-anchor="middle" x="202" y="-86.9" font-family="Microsoft YaHei" font-size="12.00">phenolyzer</text>
</g>
<!-- candidate_gene&#45;&gt;phenolyzer -->
<g id="edge9" class="edge"><title>candidate_gene&#45;&gt;phenolyzer</title>
<path fill="none" stroke="black" d="M284.745,-156C254.587,-156 214.167,-156 214.167,-156 214.167,-156 214.167,-118.035 214.167,-118.035"/>
<polygon fill="black" stroke="black" points="217.667,-118.035 214.167,-108.035 210.667,-118.035 217.667,-118.035"/>
</g>
<!-- ppi -->
<g id="node14" class="node"><title>ppi</title>
<path fill="none" stroke="black" d="M332,-108C332,-108 302,-108 302,-108 296,-108 290,-102 290,-96 290,-96 290,-84 290,-84 290,-78 296,-72 302,-72 302,-72 332,-72 332,-72 338,-72 344,-78 344,-84 344,-84 344,-96 344,-96 344,-102 338,-108 332,-108"/>
<text text-anchor="middle" x="317" y="-86.9" font-family="Microsoft YaHei" font-size="12.00">PPI</text>
</g>
<!-- candidate_gene&#45;&gt;ppi -->
<g id="edge12" class="edge"><title>candidate_gene&#45;&gt;ppi</title>
<path fill="none" stroke="black" d="M317,-143.831C317,-143.831 317,-118.413 317,-118.413"/>
<polygon fill="black" stroke="black" points="320.5,-118.413 317,-108.413 313.5,-118.413 320.5,-118.413"/>
</g>
<!-- pathway -->
<g id="node8" class="node"><title>pathway</title>
<path fill="none" stroke="black" d="M436,-108C436,-108 406,-108 406,-108 400,-108 394,-102 394,-96 394,-96 394,-84 394,-84 394,-78 400,-72 406,-72 406,-72 436,-72 436,-72 442,-72 448,-78 448,-84 448,-84 448,-96 448,-96 448,-102 442,-108 436,-108"/>
<text text-anchor="middle" x="421" y="-86.9" font-family="Microsoft YaHei" font-size="12.00">通路</text>
</g>
<!-- candidate_gene&#45;&gt;pathway -->
<g id="edge21" class="edge"><title>candidate_gene&#45;&gt;pathway</title>
<path fill="none" stroke="black" d="M349.453,-156C382.918,-156 430.25,-156 430.25,-156 430.25,-156 430.25,-118.035 430.25,-118.035"/>
<polygon fill="black" stroke="black" points="433.75,-118.035 430.25,-108.035 426.75,-118.035 433.75,-118.035"/>
</g>
<!-- fre_filter -->
<g id="node4" class="node"><title>fre_filter</title>
<path fill="none" stroke="black" d="M268.25,-540C268.25,-540 191.75,-540 191.75,-540 185.75,-540 179.75,-534 179.75,-528 179.75,-528 179.75,-516 179.75,-516 179.75,-510 185.75,-504 191.75,-504 191.75,-504 268.25,-504 268.25,-504 274.25,-504 280.25,-510 280.25,-516 280.25,-516 280.25,-528 280.25,-528 280.25,-534 274.25,-540 268.25,-540"/>
<text text-anchor="middle" x="230" y="-518.9" font-family="Microsoft YaHei" font-size="12.00">基于频率的筛选</text>
</g>
<!-- con_filter&#45;&gt;fre_filter -->
<g id="edge2" class="edge"><title>con_filter&#45;&gt;fre_filter</title>
<path fill="none" stroke="black" d="M249.5,-575.831C249.5,-575.831 249.5,-550.413 249.5,-550.413"/>
<polygon fill="black" stroke="black" points="253,-550.413 249.5,-540.413 246,-550.413 253,-550.413"/>
</g>
<!-- func_filter -->
<g id="node5" class="node"><title>func_filter</title>
<path fill="none" stroke="black" d="M270.25,-468C270.25,-468 169.75,-468 169.75,-468 163.75,-468 157.75,-462 157.75,-456 157.75,-456 157.75,-444 157.75,-444 157.75,-438 163.75,-432 169.75,-432 169.75,-432 270.25,-432 270.25,-432 276.25,-432 282.25,-438 282.25,-444 282.25,-444 282.25,-456 282.25,-456 282.25,-462 276.25,-468 270.25,-468"/>
<text text-anchor="middle" x="220" y="-446.9" font-family="Microsoft YaHei" font-size="12.00">基于功能区域的筛选</text>
</g>
<!-- fre_filter&#45;&gt;func_filter -->
<g id="edge3" class="edge"><title>fre_filter&#45;&gt;func_filter</title>
<path fill="none" stroke="black" d="M230,-503.831C230,-503.831 230,-478.413 230,-478.413"/>
<polygon fill="black" stroke="black" points="233.5,-478.413 230,-468.413 226.5,-478.413 233.5,-478.413"/>
</g>
<!-- coding_filter -->
<g id="node6" class="node"><title>coding_filter</title>
<path fill="none" stroke="black" d="M277.25,-396C277.25,-396 152.75,-396 152.75,-396 146.75,-396 140.75,-390 140.75,-384 140.75,-384 140.75,-372 140.75,-372 140.75,-366 146.75,-360 152.75,-360 152.75,-360 277.25,-360 277.25,-360 283.25,-360 289.25,-366 289.25,-372 289.25,-372 289.25,-384 289.25,-384 289.25,-390 283.25,-396 277.25,-396"/>
<text text-anchor="middle" x="215" y="-374.9" font-family="Microsoft YaHei" font-size="12.00">对编码区突变的定性筛选</text>
</g>
<!-- func_filter&#45;&gt;coding_filter -->
<g id="edge4" class="edge"><title>func_filter&#45;&gt;coding_filter</title>
<path fill="none" stroke="black" d="M220,-431.831C220,-431.831 220,-406.413 220,-406.413"/>
<polygon fill="black" stroke="black" points="223.5,-406.413 220,-396.413 216.5,-406.413 223.5,-406.413"/>
</g>
<!-- damage_score -->
<g id="node7" class="node"><title>damage_score</title>
<path fill="none" stroke="black" d="M251.25,-324C251.25,-324 138.75,-324 138.75,-324 132.75,-324 126.75,-318 126.75,-312 126.75,-312 126.75,-300 126.75,-300 126.75,-294 132.75,-288 138.75,-288 138.75,-288 251.25,-288 251.25,-288 257.25,-288 263.25,-294 263.25,-300 263.25,-300 263.25,-312 263.25,-312 263.25,-318 257.25,-324 251.25,-324"/>
<text text-anchor="middle" x="195" y="-302.9" font-family="Microsoft YaHei" font-size="12.00">基于有害性分值的筛选</text>
</g>
<!-- coding_filter&#45;&gt;damage_score -->
<g id="edge5" class="edge"><title>coding_filter&#45;&gt;damage_score</title>
<path fill="none" stroke="black" d="M202,-359.831C202,-359.831 202,-334.413 202,-334.413"/>
<polygon fill="black" stroke="black" points="205.5,-334.413 202,-324.413 198.5,-334.413 205.5,-334.413"/>
</g>
<!-- model_filter -->
<g id="node11" class="node"><title>model_filter</title>
<path fill="none" stroke="black" d="M88.25,-252C88.25,-252 11.75,-252 11.75,-252 5.75,-252 -0.25,-246 -0.25,-240 -0.25,-240 -0.25,-228 -0.25,-228 -0.25,-222 5.75,-216 11.75,-216 11.75,-216 88.25,-216 88.25,-216 94.25,-216 100.25,-222 100.25,-228 100.25,-228 100.25,-240 100.25,-240 100.25,-246 94.25,-252 88.25,-252"/>
<text text-anchor="middle" x="50" y="-230.9" font-family="Microsoft YaHei" font-size="12.00">显隐性模式筛选</text>
</g>
<!-- damage_score&#45;&gt;model_filter -->
<g id="edge8" class="edge"><title>damage_score&#45;&gt;model_filter</title>
<path fill="none" stroke="black" d="M138.75,-287.831C138.75,-266.502 138.75,-234 138.75,-234 138.75,-234 110.339,-234 110.339,-234"/>
<polygon fill="black" stroke="black" points="110.339,-230.5 100.339,-234 110.339,-237.5 110.339,-230.5"/>
</g>
<!-- share -->
<g id="node13" class="node"><title>share</title>
<path fill="none" stroke="black" d="M227.25,-252C227.25,-252 162.75,-252 162.75,-252 156.75,-252 150.75,-246 150.75,-240 150.75,-240 150.75,-228 150.75,-228 150.75,-222 156.75,-216 162.75,-216 162.75,-216 227.25,-216 227.25,-216 233.25,-216 239.25,-222 239.25,-228 239.25,-228 239.25,-240 239.25,-240 239.25,-246 233.25,-252 227.25,-252"/>
<text text-anchor="middle" x="195" y="-230.9" font-family="Microsoft YaHei" font-size="12.00">共有基因筛选</text>
</g>
<!-- damage_score&#45;&gt;share -->
<g id="edge10" class="edge"><title>damage_score&#45;&gt;share</title>
<path fill="none" stroke="black" d="M195,-287.831C195,-287.831 195,-262.413 195,-262.413"/>
<polygon fill="black" stroke="black" points="198.5,-262.413 195,-252.413 191.5,-262.413 198.5,-262.413"/>
</g>
<!-- go -->
<g id="node9" class="node"><title>go</title>
<path fill="none" stroke="black" d="M380.25,-36C380.25,-36 345.75,-36 345.75,-36 339.75,-36 333.75,-30 333.75,-24 333.75,-24 333.75,-12 333.75,-12 333.75,-6 339.75,-0 345.75,-0 345.75,-0 380.25,-0 380.25,-0 386.25,-0 392.25,-6 392.25,-12 392.25,-12 392.25,-24 392.25,-24 392.25,-30 386.25,-36 380.25,-36"/>
<text text-anchor="middle" x="363" y="-14.9" font-family="Microsoft YaHei" font-size="12.00">GO通路</text>
</g>
<!-- pathway&#45;&gt;go -->
<g id="edge6" class="edge"><title>pathway&#45;&gt;go</title>
<path fill="none" stroke="black" d="M393.883,-90C384.636,-90 376.583,-90 376.583,-90 376.583,-90 376.583,-46.1686 376.583,-46.1686"/>
<polygon fill="black" stroke="black" points="380.083,-46.1686 376.583,-36.1686 373.083,-46.1687 380.083,-46.1686"/>
</g>
<!-- kegg -->
<g id="node10" class="node"><title>kegg</title>
<path fill="none" stroke="black" d="M505.25,-36C505.25,-36 454.75,-36 454.75,-36 448.75,-36 442.75,-30 442.75,-24 442.75,-24 442.75,-12 442.75,-12 442.75,-6 448.75,-0 454.75,-0 454.75,-0 505.25,-0 505.25,-0 511.25,-0 517.25,-6 517.25,-12 517.25,-12 517.25,-24 517.25,-24 517.25,-30 511.25,-36 505.25,-36"/>
<text text-anchor="middle" x="480" y="-14.9" font-family="Microsoft YaHei" font-size="12.00">KEGG通路</text>
</g>
<!-- pathway&#45;&gt;kegg -->
<g id="edge7" class="edge"><title>pathway&#45;&gt;kegg</title>
<path fill="none" stroke="black" d="M448.238,-90C451.457,-90 453.625,-90 453.625,-90 453.625,-90 453.625,-46.1686 453.625,-46.1686"/>
<polygon fill="black" stroke="black" points="457.125,-46.1686 453.625,-36.1686 450.125,-46.1687 457.125,-46.1686"/>
</g>
<!-- share&#45;&gt;candidate_gene -->
<g id="edge11" class="edge"><title>share&#45;&gt;candidate_gene</title>
<path fill="none" stroke="black" d="M189.083,-215.965C189.083,-196.424 189.083,-168 189.083,-168 189.083,-168 274.721,-168 274.721,-168"/>
<polygon fill="black" stroke="black" points="274.721,-171.5 284.721,-168 274.721,-164.5 274.721,-171.5"/>
</g>
<!-- pathogenic -->
<g id="node16" class="node"><title>pathogenic</title>
<path fill="none" stroke="black" d="M332,-252C332,-252 302,-252 302,-252 296,-252 290,-246 290,-240 290,-240 290,-228 290,-228 290,-222 296,-216 302,-216 302,-216 332,-216 332,-216 338,-216 344,-222 344,-228 344,-228 344,-240 344,-240 344,-246 338,-252 332,-252"/>
<text text-anchor="middle" x="317" y="-230.9" font-family="Microsoft YaHei" font-size="12.00">致病</text>
</g>
<!-- acmg&#45;&gt;pathogenic -->
<g id="edge14" class="edge"><title>acmg&#45;&gt;pathogenic</title>
<path fill="none" stroke="black" d="M445.687,-300C396.383,-300 317,-300 317,-300 317,-300 317,-262.035 317,-262.035"/>
<polygon fill="black" stroke="black" points="320.5,-262.035 317,-252.035 313.5,-262.035 320.5,-262.035"/>
</g>
<!-- likely -->
<g id="node17" class="node"><title>likely</title>
<path fill="none" stroke="black" d="M447.25,-252C447.25,-252 406.75,-252 406.75,-252 400.75,-252 394.75,-246 394.75,-240 394.75,-240 394.75,-228 394.75,-228 394.75,-222 400.75,-216 406.75,-216 406.75,-216 447.25,-216 447.25,-216 453.25,-216 459.25,-222 459.25,-228 459.25,-228 459.25,-240 459.25,-240 459.25,-246 453.25,-252 447.25,-252"/>
<text text-anchor="middle" x="427" y="-230.9" font-family="Microsoft YaHei" font-size="12.00">可能致病</text>
</g>
<!-- acmg&#45;&gt;likely -->
<g id="edge15" class="edge"><title>acmg&#45;&gt;likely</title>
<path fill="none" stroke="black" d="M452.5,-287.831C452.5,-287.831 452.5,-262.413 452.5,-262.413"/>
<polygon fill="black" stroke="black" points="456,-262.413 452.5,-252.413 449,-262.413 456,-262.413"/>
</g>
<!-- vus -->
<g id="node18" class="node"><title>vus</title>
<path fill="none" stroke="black" d="M562.25,-252C562.25,-252 521.75,-252 521.75,-252 515.75,-252 509.75,-246 509.75,-240 509.75,-240 509.75,-228 509.75,-228 509.75,-222 515.75,-216 521.75,-216 521.75,-216 562.25,-216 562.25,-216 568.25,-216 574.25,-222 574.25,-228 574.25,-228 574.25,-240 574.25,-240 574.25,-246 568.25,-252 562.25,-252"/>
<text text-anchor="middle" x="542" y="-230.9" font-family="Microsoft YaHei" font-size="12.00">未知分类</text>
</g>
<!-- acmg&#45;&gt;vus -->
<g id="edge16" class="edge"><title>acmg&#45;&gt;vus</title>
<path fill="none" stroke="black" d="M516,-287.831C516,-287.831 516,-262.413 516,-262.413"/>
<polygon fill="black" stroke="black" points="519.5,-262.413 516,-252.413 512.5,-262.413 519.5,-262.413"/>
</g>
<!-- likelyBenign -->
<g id="node19" class="node"><title>likelyBenign</title>
<path fill="none" stroke="black" d="M677.25,-252C677.25,-252 636.75,-252 636.75,-252 630.75,-252 624.75,-246 624.75,-240 624.75,-240 624.75,-228 624.75,-228 624.75,-222 630.75,-216 636.75,-216 636.75,-216 677.25,-216 677.25,-216 683.25,-216 689.25,-222 689.25,-228 689.25,-228 689.25,-240 689.25,-240 689.25,-246 683.25,-252 677.25,-252"/>
<text text-anchor="middle" x="657" y="-230.9" font-family="Microsoft YaHei" font-size="12.00">可能良性</text>
</g>
<!-- acmg&#45;&gt;likelyBenign -->
<g id="edge17" class="edge"><title>acmg&#45;&gt;likelyBenign</title>
<path fill="none" stroke="black" d="M522.394,-300C573.362,-300 657,-300 657,-300 657,-300 657,-262.035 657,-262.035"/>
<polygon fill="black" stroke="black" points="660.5,-262.035 657,-252.035 653.5,-262.035 660.5,-262.035"/>
</g>
<!-- Benign -->
<g id="node20" class="node"><title>Benign</title>
<path fill="none" stroke="black" d="M782,-252C782,-252 752,-252 752,-252 746,-252 740,-246 740,-240 740,-240 740,-228 740,-228 740,-222 746,-216 752,-216 752,-216 782,-216 782,-216 788,-216 794,-222 794,-228 794,-228 794,-240 794,-240 794,-246 788,-252 782,-252"/>
<text text-anchor="middle" x="767" y="-230.9" font-family="Microsoft YaHei" font-size="12.00">良性</text>
</g>
<!-- acmg&#45;&gt;Benign -->
<g id="edge18" class="edge"><title>acmg&#45;&gt;Benign</title>
<path fill="none" stroke="black" d="M522.461,-312C599.839,-312 767,-312 767,-312 767,-312 767,-262.091 767,-262.091"/>
<polygon fill="black" stroke="black" points="770.5,-262.091 767,-252.091 763.5,-262.091 770.5,-262.091"/>
</g>
<!-- pathogenic&#45;&gt;candidate_gene -->
<g id="edge19" class="edge"><title>pathogenic&#45;&gt;candidate_gene</title>
<path fill="none" stroke="black" d="M317,-215.831C317,-215.831 317,-190.413 317,-190.413"/>
<polygon fill="black" stroke="black" points="320.5,-190.413 317,-180.413 313.5,-190.413 320.5,-190.413"/>
</g>
<!-- likely&#45;&gt;candidate_gene -->
<g id="edge20" class="edge"><title>likely&#45;&gt;candidate_gene</title>
<path fill="none" stroke="black" d="M412.5,-215.965C412.5,-196.424 412.5,-168 412.5,-168 412.5,-168 359.332,-168 359.332,-168"/>
<polygon fill="black" stroke="black" points="359.332,-164.5 349.332,-168 359.332,-171.5 359.332,-164.5"/>
</g>
</g>
</svg>
