<?xml version="1.0" encoding="utf-8"?>
<!-- Generator: Adobe Illustrator 15.0.0, SVG Export Plug-In . SVG Version: 6.00 Build 0)  -->
<!DOCTYPE svg PUBLIC "-//W3C//DTD SVG 1.1//EN" "http://www.w3.org/Graphics/SVG/1.1/DTD/svg11.dtd">
<svg version="1.1" id="图层_1" xmlns="http://www.w3.org/2000/svg" xmlns:xlink="http://www.w3.org/1999/xlink" x="0px" y="0px"
	 width="2004px" height="1168px" viewBox="0 0 2004 1168" enable-background="new 0 0 2004 1168" xml:space="preserve">
<g>
	<defs>
		<rect id="SVGID_1_" x="110.208" y="72" width="855.31" height="450.573"/>
	</defs>
	<clipPath id="SVGID_2_">
		<use xlink:href="#SVGID_1_"  overflow="visible"/>
	</clipPath>
	<g transform="matrix(1 0 0 1 5.142902e-007 -6.564581e-006)" clip-path="url(#SVGID_2_)">
		
			<image overflow="visible" width="1500" height="470" xlink:href="CCC44062.jpg"  transform="matrix(0.5702 0 0 0.9587 110.208 72)">
		</image>
	</g>
</g>
<rect x="1132.495" y="100.076" fill="#D3D3D3" width="175.65" height="13.408"/>
<rect x="1132.495" y="100.076" fill="none" stroke="#040000" stroke-width="1.417" width="175.65" height="13.408"/>
<text transform="matrix(0.9918 0 0 1.2532 1132.4941 95.7012)" fill="#040000" font-family="'ArialMT'" font-size="6.4191">6153</text>
<text transform="matrix(0.9918 0 0 1.2532 1146.6533 95.7012)" fill="#040000" font-family="'ArialMT'" font-size="6.4191">1</text>
<text transform="matrix(0.9918 0 0 1.2532 1149.7275 95.7012)" fill="#040000" font-family="'ArialMT'" font-size="6.4191">103</text>
<text transform="matrix(0.9918 0 0 1.2532 1197.4004 108.79)" fill="#040000" font-family="'ArialMT'" font-size="7.4891">NC_000082.7</text>
<text transform="matrix(0.9918 0 0 1.2532 1279.8184 94.168)" fill="#040000" font-family="'ArialMT'" font-size="6.4191">61537018</text>
<rect x="1308.146" y="100.076" fill="#FFFFFF" width="35.458" height="13.408"/>
<rect x="1308.146" y="100.076" fill="none" stroke="#040000" stroke-width="1.417" width="35.458" height="13.408"/>
<text transform="matrix(0.9918 0 0 1.2532 1306.6455 125.0283)" fill="#040000" font-family="'ArialMT'" font-size="6.4191">5969</text>
<text transform="matrix(0.9918 0 0 1.2532 1330.1816 125.3818)" fill="#040000" font-family="'ArialMT'" font-size="6.4191">7163</text>
<rect x="1308.146" y="100.076" fill="#D3D3D3" width="100.311" height="13.408"/>
<rect x="1343.602" y="100.076" fill="none" stroke="#040000" stroke-width="1.417" width="64.854" height="13.408"/>
<text transform="matrix(0.9918 0 0 1.2532 1333.8682 95.7012)" fill="#040000" font-family="'ArialMT'" font-size="6.4191">65731027</text>
<text transform="matrix(0.9918 0 0 1.2532 1353.1084 108.79)" fill="#040000" font-family="'ArialMT'" font-size="7.4891">NC_000082.7</text>
<text transform="matrix(0.9918 0 0 1.2532 1383.123 96.0605)" fill="#040000" font-family="'ArialMT'" font-size="6.4191">65728843</text>
<rect x="1408.456" y="100.076" fill="#C45A5A" width="192.456" height="13.408"/>
<rect x="1408.456" y="100.076" fill="none" stroke="#040000" stroke-width="1.417" width="192.456" height="13.408"/>
<text transform="matrix(0.9918 0 0 1.2532 1407.707 125.0283)" fill="#040000" font-family="'ArialMT'" font-size="6.4191">1</text>
<text transform="matrix(0.9918 0 0 1.2532 1487.5557 108.79)" fill="#040000" font-family="'ArialMT'" font-size="7.4891">InsertDNA</text>
<text transform="matrix(0.9918 0 0 1.2532 1586.75 125.3857)" fill="#040000" font-family="'ArialMT'" font-size="6.4191">6482</text>
<rect x="1600.914" y="100.076" fill="#C45A5A" width="192.456" height="13.408"/>
<rect x="1600.914" y="100.076" fill="none" stroke="#040000" stroke-width="1.417" width="192.456" height="13.408"/>
<text transform="matrix(0.9918 0 0 1.2532 1600.9121 95.7012)" fill="#040000" font-family="'ArialMT'" font-size="6.4191">1</text>
<text transform="matrix(0.9918 0 0 1.2532 1680.0117 108.79)" fill="#040000" font-family="'ArialMT'" font-size="7.4891">InsertDNA</text>
<text transform="matrix(0.9918 0 0 1.2532 1779.207 96.0605)" fill="#040000" font-family="'ArialMT'" font-size="6.4191">6482</text>
<polyline fill="none" stroke="#040000" stroke-width="1.417" points="1793.37,113.483 1793.37,100.076 1860.186,100.076 
	1860.186,113.483 "/>
<text transform="matrix(0.9918 0 0 1.2532 1793.3691 125.0283)" fill="#040000" font-family="'ArialMT'" font-size="6.4191">1</text>
<text transform="matrix(0.9918 0 0 1.2532 1846.0186 124.4404)" fill="#040000" font-family="'ArialMT'" font-size="6.4191">2251</text>
<line fill="none" stroke="#808081" x1="1132.495" y1="155.435" x2="1860.186" y2="155.435"/>
<line fill="none" stroke="#808081" x1="1132.495" y1="182.251" x2="1860.186" y2="182.251"/>
<line fill="none" stroke="#808081" x1="1132.495" y1="209.066" x2="1860.186" y2="209.066"/>
<line fill="none" stroke="#808081" x1="1132.495" y1="235.882" x2="1860.186" y2="235.882"/>
<line fill="none" stroke="#808081" x1="1132.495" y1="262.697" x2="1860.186" y2="262.697"/>
<line fill="none" stroke="#808081" x1="1132.495" y1="289.513" x2="1860.186" y2="289.513"/>
<line fill="none" stroke="#808081" x1="1132.495" y1="316.329" x2="1860.186" y2="316.329"/>
<line fill="none" stroke="#808081" x1="1132.495" y1="343.145" x2="1860.186" y2="343.145"/>
<line fill="none" stroke="#808081" x1="1132.495" y1="369.96" x2="1860.186" y2="369.96"/>
<line fill="none" stroke="#808081" x1="1132.495" y1="396.775" x2="1860.186" y2="396.775"/>
<line fill="none" stroke="#808081" x1="1132.495" y1="423.59" x2="1860.186" y2="423.59"/>
<line fill="none" stroke="#808081" x1="1132.495" y1="450.406" x2="1860.186" y2="450.406"/>
<line fill="none" stroke="#808081" x1="1132.495" y1="477.222" x2="1860.186" y2="477.222"/>
<text transform="matrix(0.9918 0 0 1.2532 1132.4941 146.585)" fill="#040000" font-family="'ArialMT'" font-size="8.559">read d19dfb</text>
<text transform="matrix(0.9918 0 0 1.2532 1177.7988 146.585)" fill="#040000" font-family="'ArialMT'" font-size="8.559">f</text>
<text transform="matrix(0.9918 0 0 1.2532 1180.0234 146.585)" fill="#040000" font-family="'ArialMT'" font-size="8.559">f-cf45-4e67-b653-6bc6066667bf</text>
<rect x="1132.495" y="148.731" fill="#ABD3E0" width="727.69" height="13.407"/>
<rect x="1132.495" y="148.731" fill="none" stroke="#040000" stroke-width="1.417" width="727.69" height="13.407"/>
<text transform="matrix(0.9918 0 0 1.2532 1132.4941 173.4004)" fill="#040000" font-family="'ArialMT'" font-size="8.559">read 49060869-6149-4381-838d-72d043a03c1d</text>
<rect x="1132.495" y="175.547" fill="#ABD3E0" width="727.69" height="13.407"/>
<rect x="1132.495" y="175.547" fill="none" stroke="#040000" stroke-width="1.417" width="727.69" height="13.407"/>
<text transform="matrix(0.9918 0 0 1.2532 1132.4941 200.2158)" fill="#040000" font-family="'ArialMT'" font-size="8.559">read dede4c25-0794-4508-ad32-623103e94e3c</text>
<rect x="1132.495" y="202.362" fill="#ABD3E0" width="642.851" height="13.409"/>
<rect x="1132.495" y="202.362" fill="none" stroke="#040000" stroke-width="1.417" width="642.851" height="13.409"/>
<text transform="matrix(0.9918 0 0 1.2532 1132.4941 227.0322)" fill="#040000" font-family="'ArialMT'" font-size="8.559">read c449c499-1dd0-494f-a5f8-a782fbcbec4a</text>
<rect x="1132.495" y="229.179" fill="#ABD3E0" width="590.794" height="13.407"/>
<rect x="1132.495" y="229.179" fill="none" stroke="#040000" stroke-width="1.417" width="590.794" height="13.407"/>
<text transform="matrix(0.9918 0 0 1.2532 1132.4941 253.8477)" fill="#040000" font-family="'ArialMT'" font-size="8.559">read eeb19380-4dc7-4325-81ad-7cd7b177d172</text>
<rect x="1132.495" y="255.994" fill="#ABD3E0" width="571.996" height="13.407"/>
<rect x="1132.495" y="255.994" fill="none" stroke="#040000" stroke-width="1.417" width="571.996" height="13.407"/>
<text transform="matrix(0.9918 0 0 1.2532 1132.4941 280.6631)" fill="#040000" font-family="'ArialMT'" font-size="8.559">read de545e2a-a834-4095-a094-1defa25868de</text>
<rect x="1305.057" y="282.808" fill="#ABD3E0" width="555.128" height="13.407"/>
<rect x="1305.057" y="282.808" fill="none" stroke="#040000" stroke-width="1.417" width="555.128" height="13.407"/>
<text transform="matrix(0.9918 0 0 1.2532 1132.4941 307.4775)" fill="#040000" font-family="'ArialMT'" font-size="8.559">read 797c0690-9844-4e4d-8662-9a0140132dc0</text>
<rect x="1310.254" y="309.624" fill="#ABD3E0" width="549.932" height="13.408"/>
<rect x="1310.254" y="309.624" fill="none" stroke="#040000" stroke-width="1.417" width="549.932" height="13.408"/>
<text transform="matrix(0.9918 0 0 1.2532 1132.4941 334.2939)" fill="#040000" font-family="'ArialMT'" font-size="8.559">read b3566fb8-9d0f-40fa-8c26-b1a1dfece0c1</text>
<rect x="1132.495" y="336.441" fill="#ABD3E0" width="500.847" height="13.408"/>
<rect x="1132.495" y="336.441" fill="none" stroke="#040000" stroke-width="1.417" width="500.847" height="13.408"/>
<text transform="matrix(0.9918 0 0 1.2532 1132.4941 361.1094)" fill="#040000" font-family="'ArialMT'" font-size="8.559">read 5c286326-04e0-42df-a17d-9</text>
<text transform="matrix(0.9918 0 0 1.2532 1259.4268 361.1094)" fill="#040000" font-family="'ArialMT'" font-size="8.559">f</text>
<text transform="matrix(0.9918 0 0 1.2532 1261.667 361.1094)" fill="#040000" font-family="'ArialMT'" font-size="8.559">f7722adcde</text>
<rect x="1132.495" y="363.255" fill="#ABD3E0" width="500.786" height="13.408"/>
<rect x="1132.495" y="363.255" fill="none" stroke="#040000" stroke-width="1.417" width="500.786" height="13.408"/>
<text transform="matrix(0.9918 0 0 1.2532 1132.4941 387.9258)" fill="#040000" font-family="'ArialMT'" font-size="8.559">read 426c6aa9-0e71-4996-ad80-e6644793826f</text>
<rect x="1132.495" y="390.073" fill="#ABD3E0" width="368.316" height="13.406"/>
<rect x="1132.495" y="390.073" fill="none" stroke="#040000" stroke-width="1.417" width="368.316" height="13.406"/>
<text transform="matrix(0.9918 0 0 1.2532 1132.4941 414.7402)" fill="#040000" font-family="'ArialMT'" font-size="8.559">read 2b887770-2bce-49a6-ad88-1f0b8938a</text>
<text transform="matrix(0.9918 0 0 1.2532 1297.1836 414.7402)" fill="#040000" font-family="'ArialMT'" font-size="8.559">f</text>
<text transform="matrix(0.9918 0 0 1.2532 1299.4336 414.7402)" fill="#040000" font-family="'ArialMT'" font-size="8.559">f0</text>
<rect x="1132.853" y="416.888" fill="#ABD3E0" width="330.424" height="13.406"/>
<rect x="1132.853" y="416.888" fill="none" stroke="#040000" stroke-width="1.417" width="330.424" height="13.406"/>
<text transform="matrix(0.9918 0 0 1.2532 1132.4941 441.5566)" fill="#040000" font-family="'ArialMT'" font-size="8.559">read 13805382-0983-485c-b339-fd0f42bf6b90</text>
<rect x="1132.495" y="443.702" fill="#ABD3E0" width="321.842" height="13.407"/>
<rect x="1132.495" y="443.702" fill="none" stroke="#040000" stroke-width="1.417" width="321.842" height="13.407"/>
<text transform="matrix(0.9918 0 0 1.2532 1132.4941 468.3721)" fill="#040000" font-family="'ArialMT'" font-size="8.559">read 80a134a7-7b71-4b58-a7fb-c76452c3d913</text>
<rect x="1243.468" y="470.518" fill="#ABD3E0" width="186.992" height="13.408"/>
<rect x="1243.468" y="470.518" fill="none" stroke="#040000" stroke-width="1.417" width="186.992" height="13.408"/>
<line fill="none" stroke="#808081" stroke-dasharray="4,2" x1="1308.146" y1="128.62" x2="1308.146" y2="504.039"/>
<line fill="none" stroke="#808081" stroke-dasharray="4,2" x1="1343.602" y1="128.62" x2="1343.602" y2="504.039"/>
<line fill="none" stroke="#808081" stroke-dasharray="4,2" x1="1408.456" y1="128.62" x2="1408.456" y2="504.039"/>
<line fill="none" stroke="#808081" stroke-dasharray="4,2" x1="1600.914" y1="128.62" x2="1600.914" y2="504.039"/>
<line fill="none" stroke="#808081" stroke-dasharray="4,2" x1="1793.37" y1="128.62" x2="1793.37" y2="504.039"/>
<rect x="1793.371" y="100.076" fill="none" stroke="#040000" stroke-width="1.417" width="64.854" height="13.407"/>
<text transform="matrix(0.9918 0 0 1.2532 1803.7979 108.79)" fill="#040000" font-family="'ArialMT'" font-size="7.4891">NC_000082.7</text>
<rect x="1793.369" y="100.076" fill="#D3D3D3" width="66.816" height="13.407"/>
<text transform="matrix(0.9918 0 0 1.2532 1799.3057 108.79)" fill="#040000" font-family="'ArialMT'" font-size="7.4891">NC_000082.7</text>
<rect x="107.807" y="676.876" fill="#C45A5A" width="201.711" height="18.931"/>
<rect x="107.807" y="676.876" fill="none" stroke="#040000" stroke-width="1.417" width="201.711" height="18.931"/>
<text transform="matrix(0.9918 0 0 1.4963 107.8042 669.3672)" fill="#040000" font-family="'ArialMT'" font-size="7.5911">6357</text>
<text transform="matrix(0.9918 0 0 1.4963 188.4033 689.1797)" fill="#040000" font-family="'ArialMT'" font-size="8.8563">InsertDNA</text>
<text transform="matrix(0.9918 0 0 1.4963 305.3291 672.543)" fill="#040000" font-family="'ArialMT'" font-size="7.5911">1</text>
<rect x="309.518" y="676.876" fill="#C45A5A" width="205.678" height="18.931"/>
<rect x="309.518" y="676.876" fill="none" stroke="#040000" stroke-width="1.417" width="205.678" height="18.931"/>
<text transform="matrix(0.9918 0 0 1.4963 309.5156 710.7715)" fill="#040000" font-family="'ArialMT'" font-size="7.5911">6482</text>
<text transform="matrix(0.9918 0 0 1.4963 392.0977 689.1797)" fill="#040000" font-family="'ArialMT'" font-size="8.8563">InsertDNA</text>
<text transform="matrix(0.9918 0 0 1.4963 511.0059 712.6123)" fill="#040000" font-family="'ArialMT'" font-size="7.5911">1</text>
<rect x="515.196" y="676.876" fill="#C45A5A" width="205.677" height="18.931"/>
<rect x="515.196" y="676.876" fill="none" stroke="#040000" stroke-width="1.417" width="205.677" height="18.931"/>
<text transform="matrix(0.9918 0 0 1.4963 515.1934 669.3672)" fill="#040000" font-family="'ArialMT'" font-size="7.5911">6482</text>
<text transform="matrix(0.9918 0 0 1.4963 597.7764 689.1797)" fill="#040000" font-family="'ArialMT'" font-size="8.8563">InsertDNA</text>
<text transform="matrix(0.9918 0 0 1.4963 716.6855 668.5332)" fill="#040000" font-family="'ArialMT'" font-size="7.5911">1</text>
<rect x="720.874" y="676.876" fill="#C45A5A" width="205.647" height="18.931"/>
<rect x="720.874" y="676.876" fill="none" stroke="#040000" stroke-width="1.417" width="205.647" height="18.931"/>
<text transform="matrix(0.9918 0 0 1.4963 720.8711 710.7715)" fill="#040000" font-family="'ArialMT'" font-size="7.5911">6481</text>
<text transform="matrix(0.9918 0 0 1.4963 803.4385 689.1797)" fill="#040000" font-family="'ArialMT'" font-size="8.8563">InsertDNA</text>
<text transform="matrix(0.9918 0 0 1.4963 922.3301 708.6064)" fill="#040000" font-family="'ArialMT'" font-size="7.5911">1</text>
<rect x="926.522" y="676.876" fill="#D3D3D3" width="41.826" height="18.931"/>
<rect x="926.522" y="676.876" fill="none" stroke="#040000" stroke-width="1.417" width="41.826" height="18.931"/>
<text transform="matrix(0.9918 0 0 1.4963 921.207 664.0264)" fill="#040000" font-family="'ArialMT'" font-size="7.5911">7138718</text>
<text transform="matrix(0.9918 0 0 1.4963 931.8379 691.8516)" fill="#040000" font-family="'ArialMT'" font-size="8.8563">NC_000071.7</text>
<text transform="matrix(0.9918 0 0 1.4963 958.5117 669.873)" fill="#040000" font-family="'ArialMT'" font-size="7.5911">7140036</text>
<line fill="none" stroke="#808081" x1="107.807" y1="765.724" x2="968.348" y2="756.374"/>
<line fill="none" stroke="#808081" x1="107.807" y1="803.585" x2="968.348" y2="794.234"/>
<line fill="none" stroke="#808081" x1="107.807" y1="841.445" x2="968.348" y2="832.095"/>
<line fill="none" stroke="#808081" x1="107.807" y1="879.308" x2="968.348" y2="869.956"/>
<line fill="none" stroke="#808081" x1="107.807" y1="917.166" x2="968.348" y2="907.817"/>
<line fill="none" stroke="#808081" x1="107.807" y1="955.031" x2="968.348" y2="945.681"/>
<line fill="none" stroke="#808081" x1="107.807" y1="992.891" x2="968.348" y2="983.54"/>
<line fill="none" stroke="#808081" x1="107.807" y1="1030.751" x2="968.348" y2="1021.402"/>
<line fill="none" stroke="#808081" x1="107.807" y1="1068.611" x2="968.348" y2="1059.263"/>
<line fill="none" stroke="#808081" x1="107.807" y1="1106.473" x2="968.348" y2="1097.123"/>
<text transform="matrix(0.9918 0 0 1.4963 107.8042 753.2295)" fill="#040000" font-family="'ArialMT'" font-size="10.1214">read 797c0690-9844-4e4d-8662-9a0140132dc0</text>
<polygon fill="#ABD3E0" points="107.807,756.26 968.348,746.909 968.348,765.837 107.807,775.188 "/>
<polygon fill="none" stroke="#040000" stroke-width="1.417" points="107.807,756.26 968.348,746.909 968.348,765.837 
	107.807,775.188 "/>
<text transform="matrix(0.9918 0 0 1.4963 107.8042 791.0908)" fill="#040000" font-family="'ArialMT'" font-size="10.1214">read e2a1e618-76e3-49ea-9362-6c636a679282</text>
<polygon fill="#ABD3E0" points="107.807,794.12 968.348,784.77 968.348,803.701 107.807,813.049 "/>
<polygon fill="none" stroke="#040000" stroke-width="1.417" points="107.807,794.12 968.348,784.77 968.348,803.701 
	107.807,813.049 "/>
<text transform="matrix(0.9918 0 0 1.4963 107.8042 828.9502)" fill="#040000" font-family="'ArialMT'" font-size="10.1214">read de545e2a-a834-4095-a094-1defa25868de</text>
<polygon fill="#ABD3E0" points="161.376,831.979 968.347,822.63 968.347,841.561 161.376,850.907 "/>
<polygon fill="none" stroke="#040000" stroke-width="1.417" points="161.376,831.979 968.347,822.63 968.347,841.561 
	161.376,850.907 "/>
<text transform="matrix(0.9918 0 0 1.4963 107.8042 866.8115)" fill="#040000" font-family="'ArialMT'" font-size="10.1214">read caad41af-0766-44f6-8604-d6401e072941</text>
<polygon fill="#ABD3E0" points="177.719,869.844 932.232,860.493 932.232,879.421 177.719,888.772 "/>
<polygon fill="none" stroke="#040000" stroke-width="1.417" points="177.719,869.844 932.232,860.493 932.232,879.421 
	177.719,888.772 "/>
<text transform="matrix(0.9918 0 0 1.4963 107.8042 904.6738)" fill="#040000" font-family="'ArialMT'" font-size="10.1214">read 49060869-6149-4381-838d-72d043a03c1d</text>
<polygon fill="#ABD3E0" points="282.003,907.704 968.348,898.353 968.348,917.281 282.003,926.632 "/>
<polygon fill="none" stroke="#040000" stroke-width="1.417" points="282.003,907.704 968.348,898.353 968.348,917.281 
	282.003,926.632 "/>
<text transform="matrix(0.9918 0 0 1.4963 107.8042 942.5342)" fill="#040000" font-family="'ArialMT'" font-size="10.1214">read dede4c25-0794-4508-ad32-623103e94e3c</text>
<rect x="534.459" y="936.213" fill="#ABD3E0" width="433.889" height="18.932"/>
<rect x="534.459" y="936.213" fill="none" stroke="#040000" stroke-width="1.417" width="433.889" height="18.932"/>
<text transform="matrix(0.9918 0 0 1.4963 107.8042 980.3945)" fill="#040000" font-family="'ArialMT'" font-size="10.1214">read c449c499-1dd0-494f-a5f8-a782fbcbec4a</text>
<rect x="590.092" y="974.077" fill="#ABD3E0" width="378.256" height="18.932"/>
<rect x="590.092" y="974.077" fill="none" stroke="#040000" stroke-width="1.417" width="378.256" height="18.932"/>
<text transform="matrix(0.9918 0 0 1.4963 107.8042 1018.2559)" fill="#040000" font-family="'ArialMT'" font-size="10.1214">read eeb19380-4dc7-4325-81ad-7cd7b177d172</text>
<rect x="610.18" y="1011.938" fill="#ABD3E0" width="358.168" height="18.929"/>
<rect x="610.18" y="1011.938" fill="none" stroke="#040000" stroke-width="1.417" width="358.168" height="18.929"/>
<text transform="matrix(0.9918 0 0 1.4963 107.8042 1056.1162)" fill="#040000" font-family="'ArialMT'" font-size="10.1214">read b3566fb8-9d0f-40fa-8c26-b1a1dfece0c1</text>
<rect x="686.219" y="1049.798" fill="#ABD3E0" width="282.129" height="18.929"/>
<rect x="686.219" y="1049.798" fill="none" stroke="#040000" stroke-width="1.417" width="282.129" height="18.929"/>
<text transform="matrix(0.9918 0 0 1.4963 107.8042 1093.9785)" fill="#040000" font-family="'ArialMT'" font-size="10.1214">read 5c286326-04e0-42df-a17d-9</text>
<text transform="matrix(0.9918 0 0 1.4963 257.9072 1093.9785)" fill="#040000" font-family="'ArialMT'" font-size="10.1214">f</text>
<text transform="matrix(0.9918 0 0 1.4963 260.5576 1093.9785)" fill="#040000" font-family="'ArialMT'" font-size="10.1214">f7722adcde</text>
<rect x="686.281" y="1087.658" fill="#ABD3E0" width="282.067" height="18.932"/>
<rect x="686.281" y="1087.658" fill="none" stroke="#040000" stroke-width="1.417" width="282.067" height="18.932"/>
<line fill="none" stroke="#808081" stroke-dasharray="4,2" x1="309.518" y1="718.512" x2="309.518" y2="1144.334"/>
<line fill="none" stroke="#808081" stroke-dasharray="4,2" x1="515.196" y1="718.512" x2="515.196" y2="1134.984"/>
<line fill="none" stroke="#808081" stroke-dasharray="4,2" x1="720.874" y1="718.512" x2="720.874" y2="1134.984"/>
<line fill="none" stroke="#808081" stroke-dasharray="4,2" x1="926.521" y1="718.512" x2="926.521" y2="1134.984"/>
<image overflow="visible" width="1506" height="461" xlink:href="UC101.pattern348.map_plot.png"  transform="matrix(0.6118 0 0 1.0641 1061.6201 630.3721)">
</image>
<rect x="426" y="48" fill="none" width="130" height="30"/>
<text transform="matrix(1 0 0 1 426 66.0469)" font-family="'SimHei'" font-size="21">单一插入</text>
<text transform="matrix(1 0 0 1 1404 56)" font-family="'SimHei'" font-size="21">连续插入</text>
<rect x="490" y="582" fill="none" width="162" height="30"/>
<text transform="matrix(1 0 0 1 490 600.0469)" font-family="'SimHei'" font-size="21">末端连续插入</text>
<rect x="1446" y="578" fill="none" width="176" height="60.372"/>
<text transform="matrix(1 0 0 1 1446 596.0469)" font-family="'SimHei'" font-size="21">复杂情况插入</text>
</svg>
