<?xml version="1.0" encoding="UTF-8" standalone="yes"?>
<!DOCTYPE svg PUBLIC "-//W3C//DTD SVG 1.0//EN" "http://www.w3.org/TR/2001/REC-SVG-20010904/DTD/svg10.dtd">
<svg height="520" width="1248" xmlns="http://www.w3.org/2000/svg" xmlns:svg="http://www.w3.org/2000/svg" xmlns:xlink="http://www.w3.org/1999/xlink">
	<line stroke="black" stroke-width="2" x1="403.5" x2="543.5" y1="430" y2="430" />
	<line stroke="black" stroke-width="1" x1="403.5" x2="403.5" y1="430" y2="425" />
	<line stroke="black" stroke-width="1" x1="543.5" x2="543.5" y1="430" y2="425" />
	<text font-family="Arial" font-size="10" text-anchor="middle" x="403.5" y="445">0</text>
	<text font-family="Arial" font-size="10" text-anchor="middle" x="543.5" y="445">0.03</text>
	<text font-family="Arial" font-size="15" text-anchor="middle" x="473.5" y="460">Means in groups</text>
	<rect fill="sandybrown" height="10" stroke="black" width="28" x="59" y="70" />
	<text font-family="Arial" font-size="10" text-anchor="start" x="92" y="80">D</text>
	<rect fill="cornflowerblue" height="10" stroke="black" width="28" x="102" y="70" />
	<text font-family="Arial" font-size="10" text-anchor="start" x="135" y="80">B</text>
	<line stroke="black" stroke-width="2" x1="603.5" x2="853.5" y1="430" y2="430" />
	<line stroke="black" stroke-width="1" x1="603.5" x2="603.5" y1="430" y2="425" />
	<text font-family="Arial" font-size="10" text-anchor="end" x="603.5" y="445">-0.009</text>
	<line stroke="black" stroke-width="1" x1="666" x2="666" y1="430" y2="425" />
	<text font-family="Arial" font-size="10" text-anchor="end" x="666" y="445">-0.006</text>
	<line stroke="black" stroke-width="1" x1="728.5" x2="728.5" y1="430" y2="425" />
	<text font-family="Arial" font-size="10" text-anchor="end" x="728.5" y="445">-0.003</text>
	<line stroke="black" stroke-width="1" x1="791" x2="791" y1="430" y2="425" />
	<text font-family="Arial" font-size="10" text-anchor="end" x="791" y="445">0</text>
	<line stroke="black" stroke-width="1" x1="853.5" x2="853.5" y1="430" y2="425" />
	<text font-family="Arial" font-size="10" text-anchor="end" x="853.5" y="445">0.003</text>
	<line stroke="black" stroke-dasharray="3 2" stroke-width="1" x1="791" x2="791" y1="420" y2="100" />
	<text font-family="Arial" font-size="15" text-anchor="middle" x="728.5" y="460">Difference between groups</text>
	<text font-family="Arial" font-size="10" text-anchor="middle" x="728.5" y="80">95% confidence intervals</text>
	<text font-family="Arial" font-size="10" text-anchor="end" x="398.5" y="115">One&#194;&#160;carbon&#194;&#160;pool&#194;&#160;by&#194;&#160;folate</text>
	<text font-family="Arial" font-size="10" text-anchor="start" x="858.5" y="115">0.048</text>
	<rect fill-opacity="0.1" height="20" width="140" x="403.5" y="100" />
	<rect fill-opacity="0.1" height="20" width="250" x="603.5" y="100" />
	<text font-family="Arial" font-size="10" text-anchor="end" x="398.5" y="135">Other&#194;&#160;glycan&#194;&#160;degradation</text>
	<text font-family="Arial" font-size="10" text-anchor="start" x="858.5" y="135">0.025</text>
	<text font-family="Arial" font-size="10" text-anchor="end" x="398.5" y="155">Carbon&#194;&#160;fixation&#194;&#160;by&#194;&#160;Calvin&#194;&#160;cycle</text>
	<text font-family="Arial" font-size="10" text-anchor="start" x="858.5" y="155">0.005</text>
	<rect fill-opacity="0.1" height="20" width="140" x="403.5" y="140" />
	<rect fill-opacity="0.1" height="20" width="250" x="603.5" y="140" />
	<text font-family="Arial" font-size="10" text-anchor="end" x="398.5" y="175">Folate&#194;&#160;biosynthesis</text>
	<text font-family="Arial" font-size="10" text-anchor="start" x="858.5" y="175">0.048</text>
	<text font-family="Arial" font-size="10" text-anchor="end" x="398.5" y="195">Vitamin&#194;&#160;B6&#194;&#160;metabolism</text>
	<text font-family="Arial" font-size="10" text-anchor="start" x="858.5" y="195">0.010</text>
	<rect fill-opacity="0.1" height="20" width="140" x="403.5" y="180" />
	<rect fill-opacity="0.1" height="20" width="250" x="603.5" y="180" />
	<text font-family="Arial" font-size="10" text-anchor="end" x="398.5" y="215">Glycine,&#194;&#160;serine&#194;&#160;and&#194;&#160;threonine&#194;&#160;metabolism</text>
	<text font-family="Arial" font-size="10" text-anchor="start" x="858.5" y="215">0.021</text>
	<text font-family="Arial" font-size="10" text-anchor="end" x="398.5" y="235">Sulfur&#194;&#160;relay&#194;&#160;system</text>
	<text font-family="Arial" font-size="10" text-anchor="start" x="858.5" y="235">0.035</text>
	<rect fill-opacity="0.1" height="20" width="140" x="403.5" y="220" />
	<rect fill-opacity="0.1" height="20" width="250" x="603.5" y="220" />
	<text font-family="Arial" font-size="10" text-anchor="end" x="398.5" y="255">Lipopolysaccharide&#194;&#160;biosynthesis</text>
	<text font-family="Arial" font-size="10" text-anchor="start" x="858.5" y="255">0.033</text>
	<text font-family="Arial" font-size="10" text-anchor="end" x="398.5" y="275">Citrate&#194;&#160;cycle&#194;&#160;(TCA&#194;&#160;cycle)</text>
	<text font-family="Arial" font-size="10" text-anchor="start" x="858.5" y="275">0.021</text>
	<rect fill-opacity="0.1" height="20" width="140" x="403.5" y="260" />
	<rect fill-opacity="0.1" height="20" width="250" x="603.5" y="260" />
	<text font-family="Arial" font-size="10" text-anchor="end" x="398.5" y="295">Riboflavin&#194;&#160;metabolism</text>
	<text font-family="Arial" font-size="10" text-anchor="start" x="858.5" y="295">0.039</text>
	<text font-family="Arial" font-size="10" text-anchor="end" x="398.5" y="315">Pentose&#194;&#160;and&#194;&#160;glucuronate&#194;&#160;interconversions</text>
	<text font-family="Arial" font-size="10" text-anchor="start" x="858.5" y="315">0.009</text>
	<rect fill-opacity="0.1" height="20" width="140" x="403.5" y="300" />
	<rect fill-opacity="0.1" height="20" width="250" x="603.5" y="300" />
	<text font-family="Arial" font-size="10" text-anchor="end" x="398.5" y="335">Nitrogen&#194;&#160;metabolism</text>
	<text font-family="Arial" font-size="10" text-anchor="start" x="858.5" y="335">&lt;0.001</text>
	<text font-family="Arial" font-size="10" text-anchor="end" x="398.5" y="355">Tropane,&#194;&#160;piperidine&#194;&#160;and&#194;&#160;pyridine&#194;&#160;alkaloid&#194;&#160;biosynthesis</text>
	<text font-family="Arial" font-size="10" text-anchor="start" x="858.5" y="355">0.017</text>
	<rect fill-opacity="0.1" height="20" width="140" x="403.5" y="340" />
	<rect fill-opacity="0.1" height="20" width="250" x="603.5" y="340" />
	<text font-family="Arial" font-size="10" text-anchor="end" x="398.5" y="375">Phenylalanine&#194;&#160;metabolism</text>
	<text font-family="Arial" font-size="10" text-anchor="start" x="858.5" y="375">0.005</text>
	<text font-family="Arial" font-size="10" text-anchor="end" x="398.5" y="395">Peroxisome</text>
	<text font-family="Arial" font-size="10" text-anchor="start" x="858.5" y="395">0.001</text>
	<rect fill-opacity="0.1" height="20" width="140" x="403.5" y="380" />
	<rect fill-opacity="0.1" height="20" width="250" x="603.5" y="380" />
	<text font-family="Arial" font-size="10" text-anchor="end" x="398.5" y="415">Ascorbate&#194;&#160;and&#194;&#160;aldarate&#194;&#160;metabolism</text>
	<text font-family="Arial" font-size="10" text-anchor="start" x="858.5" y="415">0.031</text>
	<rect fill="sandybrown" height="8" stroke="black" stroke-width="1" width="88.1475672433006" x="403.5" y="102" />
	<rect fill="cornflowerblue" height="8" stroke="black" width="94.3475683861018" x="403.5" y="110" />
	<rect fill="sandybrown" height="8" stroke="black" stroke-width="1" width="57.0262438601702" x="403.5" y="122" />
	<rect fill="cornflowerblue" height="8" stroke="black" width="72.2684689358525" x="403.5" y="130" />
	<rect fill="sandybrown" height="8" stroke="black" stroke-width="1" width="81.9376033602369" x="403.5" y="142" />
	<rect fill="cornflowerblue" height="8" stroke="black" width="86.4337066190481" x="403.5" y="150" />
	<rect fill="sandybrown" height="8" stroke="black" stroke-width="1" width="47.6918787899731" x="403.5" y="162" />
	<rect fill="cornflowerblue" height="8" stroke="black" width="55.2382714102837" x="403.5" y="170" />
	<rect fill="sandybrown" height="8" stroke="black" stroke-width="1" width="46.9855792538902" x="403.5" y="182" />
	<rect fill="cornflowerblue" height="8" stroke="black" width="55.0912697503742" x="403.5" y="190" />
	<rect fill="sandybrown" height="8" stroke="black" stroke-width="1" width="51.0435840023564" x="403.5" y="202" />
	<rect fill="cornflowerblue" height="8" stroke="black" width="55.6418067367722" x="403.5" y="210" />
	<rect fill="sandybrown" height="8" stroke="black" stroke-width="1" width="48.5995966719191" x="403.5" y="222" />
	<rect fill="cornflowerblue" height="8" stroke="black" width="43.3360501533505" x="403.5" y="230" />
	<rect fill="sandybrown" height="8" stroke="black" stroke-width="1" width="23.6348468889888" x="403.5" y="242" />
	<rect fill="cornflowerblue" height="8" stroke="black" width="35.1026898781239" x="403.5" y="250" />
	<rect fill="sandybrown" height="8" stroke="black" stroke-width="1" width="42.8577989103087" x="403.5" y="262" />
	<rect fill="cornflowerblue" height="8" stroke="black" width="46.6094015668364" x="403.5" y="270" />
	<rect fill="sandybrown" height="8" stroke="black" stroke-width="1" width="33.7363755516422" x="403.5" y="282" />
	<rect fill="cornflowerblue" height="8" stroke="black" width="38.7053043695491" x="403.5" y="290" />
	<rect fill="sandybrown" height="8" stroke="black" stroke-width="1" width="33.0089053878592" x="403.5" y="302" />
	<rect fill="cornflowerblue" height="8" stroke="black" width="37.5800807556075" x="403.5" y="310" />
	<rect fill="sandybrown" height="8" stroke="black" stroke-width="1" width="29.6470421518146" x="403.5" y="322" />
	<rect fill="cornflowerblue" height="8" stroke="black" width="31.3354086412353" x="403.5" y="330" />
	<rect fill="sandybrown" height="8" stroke="black" stroke-width="1" width="18.9200116779643" x="403.5" y="342" />
	<rect fill="cornflowerblue" height="8" stroke="black" width="22.2202886443771" x="403.5" y="350" />
	<rect fill="sandybrown" height="8" stroke="black" stroke-width="1" width="11.1923949096308" x="403.5" y="362" />
	<rect fill="cornflowerblue" height="8" stroke="black" width="13.0966853641082" x="403.5" y="370" />
	<rect fill="sandybrown" height="8" stroke="black" stroke-width="1" width="8.69856431325971" x="403.5" y="382" />
	<rect fill="cornflowerblue" height="8" stroke="black" width="10.5189381939018" x="403.5" y="390" />
	<rect fill="sandybrown" height="8" stroke="black" stroke-width="1" width="9.39501601183414" x="403.5" y="402" />
	<rect fill="cornflowerblue" height="8" stroke="black" width="10.2464581142281" x="403.5" y="410" />
	<line stroke="black" stroke-width="1" x1="735.932104613658" x2="759.988090136304" y1="110" y2="110" />
	<circle cx="763.321423469637" cy="110" fill="cornflowerblue" r="3.33333333333333" stroke="black" />
	<line stroke="black" stroke-width="1" x1="766.654756802971" x2="790.710742325615" y1="110" y2="110" />
	<line stroke="black" stroke-width="1" x1="735.932104613658" x2="735.932104613658" y1="108.333333333333" y2="111.666666666667" />
	<line stroke="black" stroke-width="1" x1="790.710742325615" x2="790.710742325615" y1="108.333333333333" y2="111.666666666667" />
	<line stroke="black" stroke-width="1" x1="664.532558660963" x2="719.621019007371" y1="130" y2="130" />
	<circle cx="722.954352340704" cy="130" fill="cornflowerblue" r="3.33333333333333" stroke="black" />
	<line stroke="black" stroke-width="1" x1="726.287685674038" x2="781.376146020446" y1="130" y2="130" />
	<line stroke="black" stroke-width="1" x1="664.532558660963" x2="664.532558660963" y1="128.333333333333" y2="131.666666666667" />
	<line stroke="black" stroke-width="1" x1="781.376146020446" x2="781.376146020446" y1="128.333333333333" y2="131.666666666667" />
	<line stroke="black" stroke-width="1" x1="757.968389794264" x2="767.594777118402" y1="150" y2="150" />
	<circle cx="770.928110451735" cy="150" fill="cornflowerblue" r="3.33333333333333" stroke="black" />
	<line stroke="black" stroke-width="1" x1="774.261443785069" x2="783.887831109203" y1="150" y2="150" />
	<line stroke="black" stroke-width="1" x1="757.968389794264" x2="757.968389794264" y1="148.333333333333" y2="151.666666666667" />
	<line stroke="black" stroke-width="1" x1="783.887831109203" x2="783.887831109203" y1="148.333333333333" y2="151.666666666667" />
	<line stroke="black" stroke-width="1" x1="723.982189443406" x2="753.977413897423" y1="170" y2="170" />
	<circle cx="757.310747230756" cy="170" fill="cornflowerblue" r="3.33333333333333" stroke="black" />
	<line stroke="black" stroke-width="1" x1="760.64408056409" x2="790.639305018103" y1="170" y2="170" />
	<line stroke="black" stroke-width="1" x1="723.982189443406" x2="723.982189443406" y1="168.333333333333" y2="171.666666666667" />
	<line stroke="black" stroke-width="1" x1="790.639305018103" x2="790.639305018103" y1="168.333333333333" y2="171.666666666667" />
	<line stroke="black" stroke-width="1" x1="728.448746589855" x2="751.480548378792" y1="190" y2="190" />
	<circle cx="754.813881712125" cy="190" fill="cornflowerblue" r="3.33333333333333" stroke="black" />
	<line stroke="black" stroke-width="1" x1="758.147215045458" x2="781.179016834395" y1="190" y2="190" />
	<line stroke="black" stroke-width="1" x1="728.448746589855" x2="728.448746589855" y1="188.333333333333" y2="191.666666666667" />
	<line stroke="black" stroke-width="1" x1="781.179016834395" x2="781.179016834395" y1="188.333333333333" y2="191.666666666667" />
	<line stroke="black" stroke-width="1" x1="753.674090936815" x2="767.13888660231" y1="210" y2="210" />
	<circle cx="770.472219935644" cy="210" fill="cornflowerblue" r="3.33333333333333" stroke="black" />
	<line stroke="black" stroke-width="1" x1="773.805553268977" x2="787.270348934474" y1="210" y2="210" />
	<line stroke="black" stroke-width="1" x1="753.674090936815" x2="753.674090936815" y1="208.333333333333" y2="211.666666666667" />
	<line stroke="black" stroke-width="1" x1="787.270348934474" x2="787.270348934474" y1="208.333333333333" y2="211.666666666667" />
	<line stroke="black" stroke-width="1" x1="792.858672671674" x2="811.164642195991" y1="230" y2="230" />
	<circle cx="814.497975529324" cy="230" fill="sandybrown" r="3.33333333333333" stroke="black" />
	<line stroke="black" stroke-width="1" x1="817.831308862657" x2="836.137278386974" y1="230" y2="230" />
	<line stroke="black" stroke-width="1" x1="792.858672671674" x2="792.858672671674" y1="228.333333333333" y2="231.666666666667" />
	<line stroke="black" stroke-width="1" x1="836.137278386974" x2="836.137278386974" y1="228.333333333333" y2="231.666666666667" />
	<line stroke="black" stroke-width="1" x1="693.344564213816" x2="736.470939036599" y1="250" y2="250" />
	<circle cx="739.804272369933" cy="250" fill="cornflowerblue" r="3.33333333333333" stroke="black" />
	<line stroke="black" stroke-width="1" x1="743.137605703266" x2="786.263980526049" y1="250" y2="250" />
	<line stroke="black" stroke-width="1" x1="693.344564213816" x2="693.344564213816" y1="248.333333333333" y2="251.666666666667" />
	<line stroke="black" stroke-width="1" x1="786.263980526049" x2="786.263980526049" y1="248.333333333333" y2="251.666666666667" />
	<line stroke="black" stroke-width="1" x1="760.286803546809" x2="770.918440521453" y1="270" y2="270" />
	<circle cx="774.251773854787" cy="270" fill="cornflowerblue" r="3.33333333333333" stroke="black" />
	<line stroke="black" stroke-width="1" x1="777.58510718812" x2="788.216744162765" y1="270" y2="270" />
	<line stroke="black" stroke-width="1" x1="760.286803546809" x2="760.286803546809" y1="268.333333333333" y2="271.666666666667" />
	<line stroke="black" stroke-width="1" x1="788.216744162765" x2="788.216744162765" y1="268.333333333333" y2="271.666666666667" />
	<line stroke="black" stroke-width="1" x1="747.872073940442" x2="765.483948729582" y1="290" y2="290" />
	<circle cx="768.817282062916" cy="290" fill="cornflowerblue" r="3.33333333333333" stroke="black" />
	<line stroke="black" stroke-width="1" x1="772.150615396249" x2="789.762490185389" y1="290" y2="290" />
	<line stroke="black" stroke-width="1" x1="747.872073940442" x2="747.872073940442" y1="288.333333333333" y2="291.666666666667" />
	<line stroke="black" stroke-width="1" x1="789.762490185389" x2="789.762490185389" y1="288.333333333333" y2="291.666666666667" />
	<line stroke="black" stroke-width="1" x1="755.909299225937" x2="767.259633774933" y1="310" y2="310" />
	<circle cx="770.592967108266" cy="310" fill="cornflowerblue" r="3.33333333333333" stroke="black" />
	<line stroke="black" stroke-width="1" x1="773.9263004416" x2="785.276634990595" y1="310" y2="310" />
	<line stroke="black" stroke-width="1" x1="755.909299225937" x2="755.909299225937" y1="308.333333333333" y2="311.666666666667" />
	<line stroke="black" stroke-width="1" x1="785.276634990595" x2="785.276634990595" y1="308.333333333333" y2="311.666666666667" />
	<line stroke="black" stroke-width="1" x1="780.238677287994" x2="780.129316267468" y1="330" y2="330" />
	<circle cx="783.462649600801" cy="330" fill="cornflowerblue" r="3.33333333333333" stroke="black" />
	<line stroke="black" stroke-width="1" x1="786.795982934134" x2="786.686621913608" y1="330" y2="330" />
	<line stroke="black" stroke-width="1" x1="780.238677287994" x2="780.238677287994" y1="328.333333333333" y2="331.666666666667" />
	<line stroke="black" stroke-width="1" x1="786.686621913608" x2="786.686621913608" y1="328.333333333333" y2="331.666666666667" />
	<line stroke="black" stroke-width="1" x1="764.50730360804" x2="772.933287352324" y1="350" y2="350" />
	<circle cx="776.266620685657" cy="350" fill="cornflowerblue" r="3.33333333333333" stroke="black" />
	<line stroke="black" stroke-width="1" x1="779.599954018991" x2="788.025937763274" y1="350" y2="350" />
	<line stroke="black" stroke-width="1" x1="764.50730360804" x2="764.50730360804" y1="348.333333333333" y2="351.666666666667" />
	<line stroke="black" stroke-width="1" x1="788.025937763274" x2="788.025937763274" y1="348.333333333333" y2="351.666666666667" />
	<line stroke="black" stroke-width="1" x1="776.935383050367" x2="779.165369994893" y1="370" y2="370" />
	<circle cx="782.498703328226" cy="370" fill="cornflowerblue" r="3.33333333333333" stroke="black" />
	<line stroke="black" stroke-width="1" x1="785.832036661559" x2="788.062023606085" y1="370" y2="370" />
	<line stroke="black" stroke-width="1" x1="776.935383050367" x2="776.935383050367" y1="368.333333333333" y2="371.666666666667" />
	<line stroke="black" stroke-width="1" x1="788.062023606085" x2="788.062023606085" y1="368.333333333333" y2="371.666666666667" />
	<line stroke="black" stroke-width="1" x1="778.365631137991" x2="779.539997556657" y1="390" y2="390" />
	<circle cx="782.873330889991" cy="390" fill="cornflowerblue" r="3.33333333333333" stroke="black" />
	<line stroke="black" stroke-width="1" x1="786.206664223324" x2="787.381030641991" y1="390" y2="390" />
	<line stroke="black" stroke-width="1" x1="778.365631137991" x2="778.365631137991" y1="388.333333333333" y2="391.666666666667" />
	<line stroke="black" stroke-width="1" x1="787.381030641991" x2="787.381030641991" y1="388.333333333333" y2="391.666666666667" />
	<line stroke="black" stroke-width="1" x1="783.81317208094" x2="783.865585852408" y1="410" y2="410" />
	<circle cx="787.198919185741" cy="410" fill="cornflowerblue" r="3.33333333333333" stroke="black" />
	<line stroke="black" stroke-width="1" x1="790.532252519075" x2="790.584666290543" y1="410" y2="410" />
	<line stroke="black" stroke-width="1" x1="783.81317208094" x2="783.81317208094" y1="408.333333333333" y2="411.666666666667" />
	<line stroke="black" stroke-width="1" x1="790.584666290543" x2="790.584666290543" y1="408.333333333333" y2="411.666666666667" />
	<g transform="rotate(90,901,260)">
		<text font-family="Arial" font-size="10" text-anchor="middle" x="901" y="260">p_value</text>
	</g>
	<!-- 
	Generated using the Perl SVG Module V2.59
	by Ronan Oger
	Info: http://www.roitsystems.com/
 -->
</svg>