<?xml version="1.0" encoding="UTF-8" standalone="yes"?>
<!DOCTYPE svg PUBLIC "-//W3C//DTD SVG 1.0//EN" "http://www.w3.org/TR/2001/REC-SVG-20010904/DTD/svg10.dtd">
<svg height="500" width="1104" xmlns="http://www.w3.org/2000/svg" xmlns:svg="http://www.w3.org/2000/svg" xmlns:xlink="http://www.w3.org/1999/xlink">
	<line stroke="black" stroke-width="2" x1="325.5" x2="465.5" y1="410" y2="410" />
	<line stroke="black" stroke-width="1" x1="325.5" x2="325.5" y1="410" y2="405" />
	<line stroke="black" stroke-width="1" x1="465.5" x2="465.5" y1="410" y2="405" />
	<text font-family="Arial" font-size="10" text-anchor="middle" x="325.5" y="425">0</text>
	<text font-family="Arial" font-size="10" text-anchor="middle" x="465.5" y="425">0.009</text>
	<text font-family="Arial" font-size="15" text-anchor="middle" x="395.5" y="440">Means in groups</text>
	<rect fill="sandybrown" height="10" stroke="black" width="28" x="47" y="70" />
	<text font-family="Arial" font-size="10" text-anchor="start" x="80" y="80">D</text>
	<rect fill="cornflowerblue" height="10" stroke="black" width="28" x="90" y="70" />
	<text font-family="Arial" font-size="10" text-anchor="start" x="123" y="80">C</text>
	<line stroke="black" stroke-width="2" x1="525.5" x2="775.5" y1="410" y2="410" />
	<line stroke="black" stroke-width="1" x1="525.5" x2="525.5" y1="410" y2="405" />
	<text font-family="Arial" font-size="10" text-anchor="end" x="525.5" y="425">-0.0005</text>
	<line stroke="black" stroke-width="1" x1="608.833333333333" x2="608.833333333333" y1="410" y2="405" />
	<text font-family="Arial" font-size="10" text-anchor="end" x="608.833333333333" y="425">0</text>
	<line stroke="black" stroke-width="1" x1="692.166666666667" x2="692.166666666667" y1="410" y2="405" />
	<text font-family="Arial" font-size="10" text-anchor="end" x="692.166666666667" y="425">0.0005</text>
	<line stroke="black" stroke-width="1" x1="775.5" x2="775.5" y1="410" y2="405" />
	<text font-family="Arial" font-size="10" text-anchor="end" x="775.5" y="425">0.001</text>
	<line stroke="black" stroke-dasharray="3 2" stroke-width="1" x1="608.833333333333" x2="608.833333333333" y1="400" y2="100" />
	<text font-family="Arial" font-size="15" text-anchor="middle" x="650.5" y="440">Difference between groups</text>
	<text font-family="Arial" font-size="10" text-anchor="middle" x="650.5" y="80">95% confidence intervals</text>
	<text font-family="Arial" font-size="10" text-anchor="end" x="320.5" y="120">Glycine,_serine_and_threonine_metabolism</text>
	<text font-family="Arial" font-size="10" text-anchor="start" x="780.5" y="120">0.035</text>
	<rect fill-opacity="0.1" height="30" width="140" x="325.5" y="100" />
	<rect fill-opacity="0.1" height="30" width="250" x="525.5" y="100" />
	<text font-family="Arial" font-size="10" text-anchor="end" x="320.5" y="150">Citrate_cycle_(TCA_cycle)</text>
	<text font-family="Arial" font-size="10" text-anchor="start" x="780.5" y="150">0.040</text>
	<text font-family="Arial" font-size="10" text-anchor="end" x="320.5" y="180">One_carbon_pool_by_folate</text>
	<text font-family="Arial" font-size="10" text-anchor="start" x="780.5" y="180">0.004</text>
	<rect fill-opacity="0.1" height="30" width="140" x="325.5" y="160" />
	<rect fill-opacity="0.1" height="30" width="250" x="525.5" y="160" />
	<text font-family="Arial" font-size="10" text-anchor="end" x="320.5" y="210">Glycerolipid_metabolism</text>
	<text font-family="Arial" font-size="10" text-anchor="start" x="780.5" y="210">0.042</text>
	<text font-family="Arial" font-size="10" text-anchor="end" x="320.5" y="240">Glucagon_signaling_pathway</text>
	<text font-family="Arial" font-size="10" text-anchor="start" x="780.5" y="240">0.040</text>
	<rect fill-opacity="0.1" height="30" width="140" x="325.5" y="220" />
	<rect fill-opacity="0.1" height="30" width="250" x="525.5" y="220" />
	<text font-family="Arial" font-size="10" text-anchor="end" x="320.5" y="270">Lipopolysaccharide_biosynthesis_proteins</text>
	<text font-family="Arial" font-size="10" text-anchor="start" x="780.5" y="270">0.049</text>
	<text font-family="Arial" font-size="10" text-anchor="end" x="320.5" y="300">Biofilm_formation-Vibrio_cholerae</text>
	<text font-family="Arial" font-size="10" text-anchor="start" x="780.5" y="300">0.028</text>
	<rect fill-opacity="0.1" height="30" width="140" x="325.5" y="280" />
	<rect fill-opacity="0.1" height="30" width="250" x="525.5" y="280" />
	<text font-family="Arial" font-size="10" text-anchor="end" x="320.5" y="330">Tuberculosis</text>
	<text font-family="Arial" font-size="10" text-anchor="start" x="780.5" y="330">0.045</text>
	<text font-family="Arial" font-size="10" text-anchor="end" x="320.5" y="360">Membrane_and_intracellular_structural_molecules</text>
	<text font-family="Arial" font-size="10" text-anchor="start" x="780.5" y="360">0.042</text>
	<rect fill-opacity="0.1" height="30" width="140" x="325.5" y="340" />
	<rect fill-opacity="0.1" height="30" width="250" x="525.5" y="340" />
	<text font-family="Arial" font-size="10" text-anchor="end" x="320.5" y="390">Novobiocin_biosynthesis</text>
	<text font-family="Arial" font-size="10" text-anchor="start" x="780.5" y="390">0.043</text>
	<rect fill="sandybrown" height="12" stroke="black" stroke-width="1" width="127.99892368424" x="325.5" y="103" />
	<rect fill="cornflowerblue" height="12" stroke="black" width="123.685867939169" x="325.5" y="115" />
	<rect fill="sandybrown" height="12" stroke="black" stroke-width="1" width="108.542695691344" x="325.5" y="133" />
	<rect fill="cornflowerblue" height="12" stroke="black" width="101.639965173678" x="325.5" y="145" />
	<rect fill="sandybrown" height="12" stroke="black" stroke-width="1" width="68.7264379062644" x="325.5" y="163" />
	<rect fill="cornflowerblue" height="12" stroke="black" width="66.9986311733355" x="325.5" y="175" />
	<rect fill="sandybrown" height="12" stroke="black" stroke-width="1" width="52.09490248704" x="325.5" y="193" />
	<rect fill="cornflowerblue" height="12" stroke="black" width="54.6846451586555" x="325.5" y="205" />
	<rect fill="sandybrown" height="12" stroke="black" stroke-width="1" width="42.1613231529467" x="325.5" y="223" />
	<rect fill="cornflowerblue" height="12" stroke="black" width="43.92577617806" x="325.5" y="235" />
	<rect fill="sandybrown" height="12" stroke="black" stroke-width="1" width="25.0095487682444" x="325.5" y="253" />
	<rect fill="cornflowerblue" height="12" stroke="black" width="22.2806523674156" x="325.5" y="265" />
	<rect fill="sandybrown" height="12" stroke="black" stroke-width="1" width="30.0512246906667" x="325.5" y="283" />
	<rect fill="cornflowerblue" height="12" stroke="black" width="28.5980101131511" x="325.5" y="295" />
	<rect fill="sandybrown" height="12" stroke="black" stroke-width="1" width="26.8706296612133" x="325.5" y="313" />
	<rect fill="cornflowerblue" height="12" stroke="black" width="27.1833335784578" x="325.5" y="325" />
	<rect fill="sandybrown" height="12" stroke="black" stroke-width="1" width="23.3247434326044" x="325.5" y="343" />
	<rect fill="cornflowerblue" height="12" stroke="black" width="22.2477763450756" x="325.5" y="355" />
	<rect fill="sandybrown" height="12" stroke="black" stroke-width="1" width="18.5432626518222" x="325.5" y="373" />
	<rect fill="cornflowerblue" height="12" stroke="black" width="17.0954372676484" x="325.5" y="385" />
	<line stroke="black" stroke-width="1" x1="612.442082211902" x2="650.044644887667" y1="115" y2="115" />
	<circle cx="655.044644887667" cy="115" fill="sandybrown" r="5" stroke="black" />
	<line stroke="black" stroke-width="1" x1="660.044644887667" x2="697.647207563431" y1="115" y2="115" />
	<line stroke="black" stroke-width="1" x1="612.442082211902" x2="612.442082211902" y1="112.5" y2="117.5" />
	<line stroke="black" stroke-width="1" x1="697.647207563431" x2="697.647207563431" y1="112.5" y2="117.5" />
	<line stroke="black" stroke-width="1" x1="612.691037813903" x2="677.791160308333" y1="145" y2="145" />
	<circle cx="682.791160308333" cy="145" fill="sandybrown" r="5" stroke="black" />
	<line stroke="black" stroke-width="1" x1="687.791160308333" x2="752.891282802764" y1="145" y2="145" />
	<line stroke="black" stroke-width="1" x1="612.691037813903" x2="612.691037813903" y1="142.5" y2="147.5" />
	<line stroke="black" stroke-width="1" x1="752.891282802764" x2="752.891282802764" y1="142.5" y2="147.5" />
	<line stroke="black" stroke-width="1" x1="615.710655816449" x2="622.345548329" y1="175" y2="175" />
	<circle cx="627.345548329" cy="175" fill="sandybrown" r="5" stroke="black" />
	<line stroke="black" stroke-width="1" x1="632.345548329" x2="638.980440841551" y1="175" y2="175" />
	<line stroke="black" stroke-width="1" x1="615.710655816449" x2="615.710655816449" y1="172.5" y2="177.5" />
	<line stroke="black" stroke-width="1" x1="638.980440841551" x2="638.980440841551" y1="172.5" y2="177.5" />
	<line stroke="black" stroke-width="1" x1="554.517732903339" x2="576.086090423167" y1="205" y2="205" />
	<circle cx="581.086090423167" cy="205" fill="cornflowerblue" r="5" stroke="black" />
	<line stroke="black" stroke-width="1" x1="586.086090423167" x2="607.654447942994" y1="205" y2="205" />
	<line stroke="black" stroke-width="1" x1="554.517732903339" x2="554.517732903339" y1="202.5" y2="207.5" />
	<line stroke="black" stroke-width="1" x1="607.654447942994" x2="607.654447942994" y1="202.5" y2="207.5" />
	<line stroke="black" stroke-width="1" x1="572.015390643725" x2="584.928479492833" y1="235" y2="235" />
	<circle cx="589.928479492833" cy="235" fill="cornflowerblue" r="5" stroke="black" />
	<line stroke="black" stroke-width="1" x1="594.928479492833" x2="607.841568341942" y1="235" y2="235" />
	<line stroke="black" stroke-width="1" x1="572.015390643725" x2="572.015390643725" y1="232.5" y2="237.5" />
	<line stroke="black" stroke-width="1" x1="607.841568341942" x2="607.841568341942" y1="232.5" y2="237.5" />
	<line stroke="black" stroke-width="1" x1="609.065775225826" x2="633.0715090565" y1="265" y2="265" />
	<circle cx="638.0715090565" cy="265" fill="sandybrown" r="5" stroke="black" />
	<line stroke="black" stroke-width="1" x1="643.0715090565" x2="667.077242887174" y1="265" y2="265" />
	<line stroke="black" stroke-width="1" x1="609.065775225826" x2="609.065775225826" y1="262.5" y2="267.5" />
	<line stroke="black" stroke-width="1" x1="667.077242887174" x2="667.077242887174" y1="262.5" y2="267.5" />
	<line stroke="black" stroke-width="1" x1="610.674084631589" x2="619.403489521" y1="295" y2="295" />
	<circle cx="624.403489521" cy="295" fill="sandybrown" r="5" stroke="black" />
	<line stroke="black" stroke-width="1" x1="629.403489521" x2="638.13289441041" y1="295" y2="295" />
	<line stroke="black" stroke-width="1" x1="610.674084631589" x2="610.674084631589" y1="292.5" y2="297.5" />
	<line stroke="black" stroke-width="1" x1="638.13289441041" x2="638.13289441041" y1="292.5" y2="297.5" />
	<line stroke="black" stroke-width="1" x1="602.216361026287" x2="600.48293422" y1="325" y2="325" />
	<circle cx="605.48293422" cy="325" fill="cornflowerblue" r="5" stroke="black" />
	<line stroke="black" stroke-width="1" x1="610.48293422" x2="608.749507413713" y1="325" y2="325" />
	<line stroke="black" stroke-width="1" x1="602.216361026287" x2="602.216361026287" y1="322.5" y2="327.5" />
	<line stroke="black" stroke-width="1" x1="608.749507413713" x2="608.749507413713" y1="322.5" y2="327.5" />
	<line stroke="black" stroke-width="1" x1="609.347963283357" x2="615.372266414" y1="355" y2="355" />
	<circle cx="620.372266414" cy="355" fill="sandybrown" r="5" stroke="black" />
	<line stroke="black" stroke-width="1" x1="625.372266414" x2="631.396569544643" y1="355" y2="355" />
	<line stroke="black" stroke-width="1" x1="609.347963283357" x2="609.347963283357" y1="352.5" y2="357.5" />
	<line stroke="black" stroke-width="1" x1="631.396569544643" x2="631.396569544643" y1="352.5" y2="357.5" />
	<line stroke="black" stroke-width="1" x1="609.358024384987" x2="619.345748163767" y1="385" y2="385" />
	<circle cx="624.345748163767" cy="385" fill="sandybrown" r="5" stroke="black" />
	<line stroke="black" stroke-width="1" x1="629.345748163767" x2="639.333471942546" y1="385" y2="385" />
	<line stroke="black" stroke-width="1" x1="609.358024384987" x2="609.358024384987" y1="382.5" y2="387.5" />
	<line stroke="black" stroke-width="1" x1="639.333471942546" x2="639.333471942546" y1="382.5" y2="387.5" />
	<g transform="rotate(90,823,250)">
		<text font-family="Arial" font-size="10" text-anchor="middle" x="823" y="250">p_value</text>
	</g>
	<!-- 
	Generated using the Perl SVG Module V2.59
	by Ronan Oger
	Info: http://www.roitsystems.com/
 -->
</svg>